<svg xmlns="http://www.w3.org/2000/svg" viewBox="0 0 3888 3684">
  <path fill="#ff00d6" fill-rule="evenodd" d="M2939.62 1198.86c-221.3-372.11-625.64-599.59-1087.86-599.59-699.74 0-1245.34 538.43-1245.34 1242.72s545.6 1296.9 1245.34 1296.9c462.22 0 866.56-270.82 1087.86-642.93h634.24c-262.11 694.44-940.2 1188.03-1722.1 1188.03-1010.74 0-1851.77-824.69-1851.77-1842S841.02-.01 1851.76-.01c781.9 0 1459.99 504.43 1722.1 1198.87h-634.24ZM3888 1625.29l-638.98 455.08h-801.66c-93.37 240.88-327.09 411.74-600.84 411.74-355.89 0-644.39-288.64-644.39-644.7s288.5-644.7 644.39-644.7c277.87 0 514.64 175.96 605.11 422.58H3888Z"/>
</svg>
